<svg width="82" height="86" viewBox="0 0 82 86" fill="none" xmlns="http://www.w3.org/2000/svg">
<line x1="3.6447" y1="21.9082" x2="76.9782" y2="64.2473" stroke="white" stroke-width="1.30274" stroke-linecap="square"/>
<line x1="0.651371" y1="-0.651371" x2="85.3296" y2="-0.651371" transform="matrix(-0.866025 0.5 0.5 0.866025 77.2166 22.1466)" stroke="white" stroke-width="1.30274" stroke-linecap="square"/>
<line x1="38.5803" y1="0.651371" x2="38.5803" y2="85.3296" stroke="white" stroke-width="1.30274" stroke-linecap="square"/>
<path d="M45.0483 3.92865L38.8747 8.97975" stroke="white" stroke-width="1.30274" stroke-linecap="square"/>
<path d="M73.7502 69.3867L72.5489 61.7359" stroke="white" stroke-width="1.30274" stroke-linecap="square"/>
<line x1="7.44387" y1="16.2045" x2="8.34883" y2="23.9684" stroke="white" stroke-width="1.30274" stroke-linecap="square"/>
<path d="M45.6344 12.1297L38.8747 17.3983" stroke="white" stroke-width="1.30274" stroke-linecap="square"/>
<path d="M66.4742 65.2087L65.2528 57.8073" stroke="white" stroke-width="1.30274" stroke-linecap="square"/>
<line x1="14.8066" y1="20.2278" x2="15.7115" y2="27.9916" stroke="white" stroke-width="1.30274" stroke-linecap="square"/>
<line x1="45.6344" y1="19.9461" x2="39.3278" y2="24.5639" stroke="white" stroke-width="1.30274" stroke-linecap="square"/>
<path d="M59.7585 61.2092L58.518 53.8786" stroke="white" stroke-width="1.30274" stroke-linecap="square"/>
<path d="M22.0376 24.1331L22.0376 31.9904" stroke="white" stroke-width="1.30274" stroke-linecap="square"/>
<path d="M78.4592 27.3745L71.4264 24.6944" stroke="white" stroke-width="1.30274" stroke-linecap="square"/>
<path d="M32.8587 83.9489L38.3135 79.6955" stroke="white" stroke-width="1.30274" stroke-linecap="square"/>
<line x1="2.29171" y1="57.069" x2="9.60379" y2="59.8313" stroke="white" stroke-width="1.30274" stroke-linecap="square"/>
<path d="M71.5294 31.2109L64.1303 28.623" stroke="white" stroke-width="1.30274" stroke-linecap="square"/>
<path d="M32.8587 76.1324L38.3135 71.8382" stroke="white" stroke-width="1.30274" stroke-linecap="square"/>
<path d="M8.84024 52.8013L16.4253 56.1236" stroke="white" stroke-width="1.30274" stroke-linecap="square"/>
<path d="M63.7613 35.9875L56.8343 33.1129" stroke="white" stroke-width="1.30274" stroke-linecap="square"/>
<path d="M32.8587 67.0132L38.3135 62.8584" stroke="white" stroke-width="1.30274" stroke-linecap="square"/>
<path d="M16.4802 47.8223L23.1601 52.1949" stroke="white" stroke-width="1.30274" stroke-linecap="square"/>
<path d="M38.3135 8.9798L32.8299 3.51984" stroke="white" stroke-width="1.30274" stroke-linecap="square"/>
<line x1="73.1362" y1="61.4402" x2="80.4233" y2="58.6128" stroke="white" stroke-width="1.30274" stroke-linecap="square"/>
<path d="M8.00674 24.6944L0.999998 27.4032" stroke="white" stroke-width="1.30274" stroke-linecap="square"/>
<path d="M38.3135 17.3983L32.9632 11.909" stroke="white" stroke-width="1.30274" stroke-linecap="square"/>
<line x1="65.8602" y1="57.2621" x2="73.1474" y2="54.4348" stroke="white" stroke-width="1.30274" stroke-linecap="square"/>
<path d="M15.3028 29.1843L8.36269 31.1403" stroke="white" stroke-width="1.30274" stroke-linecap="square"/>
<path d="M38.3135 24.6944L31.0174 20.2045" stroke="white" stroke-width="1.30274" stroke-linecap="square"/>
<line x1="59.1444" y1="53.2626" x2="66.4316" y2="50.4353" stroke="white" stroke-width="1.30274" stroke-linecap="square"/>
<path d="M22.0376 32.5517L15.1615 34.997" stroke="white" stroke-width="1.30274" stroke-linecap="square"/>
<path d="M71.4264 24.1332L71.7386 16.2072" stroke="white" stroke-width="1.30274" stroke-linecap="square"/>
<path d="M38.8747 79.6955L45.5299 84.1696" stroke="white" stroke-width="1.30274" stroke-linecap="square"/>
<path d="M10.2517 60.0522L9.02514 67.8053" stroke="white" stroke-width="1.30274" stroke-linecap="square"/>
<line x1="64.2047" y1="28.0687" x2="65.0802" y2="20.3015" stroke="white" stroke-width="1.30274" stroke-linecap="square"/>
<path d="M38.8747 71.8382L45.5299 76.3531" stroke="white" stroke-width="1.30274" stroke-linecap="square"/>
<path d="M16.9865 56.6848L15.864 63.9809" stroke="white" stroke-width="1.30274" stroke-linecap="square"/>
<path d="M56.8343 32.5517L57.3121 25.0782" stroke="white" stroke-width="1.30274" stroke-linecap="square"/>
<path d="M38.8747 62.8584L45.5299 67.2339" stroke="white" stroke-width="1.30274" stroke-linecap="square"/>
<path d="M23.7213 52.7562L23.1601 60.0522" stroke="white" stroke-width="1.30274" stroke-linecap="square"/>
</svg>
